<?xml version="1.0" encoding="UTF-8"?>
<svg version="1.1" xmlns="http://www.w3.org/2000/svg" width="68" height="36">
<path d="M0 0 C1.18851563 0.00902344 2.37703125 0.01804687 3.6015625 0.02734375 C4.51679687 0.03894531 5.43203125 0.05054688 6.375 0.0625 C6.49154436 3.6247231 6.5623639 7.18645342 6.625 10.75 C6.67527344 12.26110352 6.67527344 12.26110352 6.7265625 13.80273438 C6.78563563 18.27752401 6.81469658 21.24072226 4.67578125 25.23828125 C1.97331411 27.3809844 0.72589848 27.68606194 -2.6875 27.5625 C-3.54472656 27.5521875 -4.40195312 27.541875 -5.28515625 27.53125 C-8.03675198 26.98001212 -8.99689097 26.32583845 -10.625 24.0625 C-10.625 23.0725 -10.625 22.0825 -10.625 21.0625 C-9.6040625 21.2790625 -9.6040625 21.2790625 -8.5625 21.5 C-5.26226918 22.13195909 -1.95355574 22.60563941 1.375 23.0625 C1.375 22.0725 1.375 21.0825 1.375 20.0625 C0.1375 20.145 -1.1 20.2275 -2.375 20.3125 C-5.37301006 20.29127515 -6.43990282 20.17640595 -9.0625 18.5625 C-11.186638 15.1638792 -11.83049458 12.01093165 -11.625 8.0625 C-10.91309259 5.40810235 -9.97179583 3.50668503 -8.625 1.0625 C-5.74084117 -0.37957941 -3.20778472 -0.03144887 0 0 Z M-5.1875 4.25 C-7.03202462 6.57570496 -7.41383056 8.10612782 -7.625 11.0625 C-7.07025427 13.82559357 -7.07025427 13.82559357 -5.625 16.0625 C-3.80076488 17.31024386 -3.80076488 17.31024386 -1.625 17.0625 C0.76950853 15.58561011 0.76950853 15.58561011 2.375 13.0625 C3.04166667 10.0625 3.04166667 10.0625 2.375 7.0625 C0.62434167 4.64390803 0.62434167 4.64390803 -1.625 3.0625 C-3.68670257 2.86080558 -3.68670257 2.86080558 -5.1875 4.25 Z " fill="#000000" transform="translate(38.625,6.9375)"/>
<path d="M0 0 C2.16015625 0.36328125 2.16015625 0.36328125 4.66015625 2.23828125 C7.43951014 6.17569925 7.68599142 9.63076472 7.16015625 14.36328125 C5.02126736 18.93272569 5.02126736 18.93272569 2.16015625 20.36328125 C-2.06496943 20.86083466 -5.63310018 21.08732739 -9.33984375 18.86328125 C-11.40633251 15.41913331 -11.91943908 12.35896678 -11.83984375 8.36328125 C-9.99695543 1.45245007 -6.80050792 -0.21009699 0 0 Z M-6.83984375 6.36328125 C-8.12331081 9.61473114 -8.04618346 10.88544192 -6.65234375 14.11328125 C-5.03102677 16.41854504 -5.03102677 16.41854504 -2.90234375 17.42578125 C-0.66597445 17.54561618 -0.66597445 17.54561618 1.41015625 15.80078125 C3.37356462 13.44482087 3.37356462 13.44482087 3.66015625 10.36328125 C3.05645333 6.74106374 2.04294731 5.56776853 -0.83984375 3.36328125 C-3.71689056 3.36328125 -4.76501536 4.42231276 -6.83984375 6.36328125 Z " fill="#000000" transform="translate(59.83984375,6.63671875)"/>
<path d="M0 0 C2.5625 1.8125 2.5625 1.8125 4 5 C4.68710917 9.8893242 4.92698232 14.26694609 2.5625 18.6875 C-1.32210788 20.67717721 -4.7358196 20.84221357 -9 20 C-12.0625 18.125 -12.0625 18.125 -14 15 C-15.00187438 9.94922834 -14.79376084 6.28025942 -12.0625 1.875 C-7.94831818 -0.64388683 -4.70413145 -1.04438739 0 0 Z M-8.125 4.625 C-10.23118579 6.90039486 -10.23118579 6.90039486 -10.5 10 C-9.90092877 13.5944274 -8.7822335 14.73943528 -6 17 C-2.75016865 15.91215032 -2.75016865 15.91215032 0 14 C0.32579882 9.96920088 0.32579882 9.96920088 0 6 C-1.72928883 3.90899372 -1.72928883 3.90899372 -4 3 C-6.18106686 2.79751663 -6.18106686 2.79751663 -8.125 4.625 Z " fill="#000000" transform="translate(21,7)"/>
<path d="M0 0 C1.32 0 2.64 0 4 0 C4 8.91 4 17.82 4 27 C2.68 27 1.36 27 0 27 C0 18.09 0 9.18 0 0 Z " fill="#000000" transform="translate(0,0)"/>
</svg>
