<?xml version="1.0" standalone="no"?>
<!DOCTYPE svg PUBLIC "-//W3C//DTD SVG 20010904//EN"
 "http://www.w3.org/TR/2001/REC-SVG-20010904/DTD/svg10.dtd">
<svg version="1.0" xmlns="http://www.w3.org/2000/svg"
 width="1536.000000pt" height="1024.000000pt" viewBox="0 0 1536.000000 1024.000000"
 preserveAspectRatio="xMidYMid meet">

<g transform="translate(0.000000,1024.000000) scale(0.100000,-0.100000)"
fill="#000000" stroke="none">
<path d="M6985 8290 c-1599 -66 -2977 -398 -3967 -956 -723 -407 -1232 -944
-1406 -1484 -60 -188 -82 -316 -82 -495 0 -433 155 -809 483 -1169 100 -109
283 -267 412 -355 77 -53 311 -192 400 -239 6 -3 -58 64 -141 149 -169 174
-234 252 -331 401 -125 192 -217 404 -260 601 -28 127 -25 456 5 592 81 365
247 673 541 1002 207 232 547 503 871 693 263 155 680 351 950 448 405 145
650 218 1010 301 1145 264 2403 358 3570 266 805 -64 1437 -170 2072 -349 69
-20 130 -36 135 -36 4 1 -55 25 -132 55 -697 273 -1556 455 -2525 535 -466 39
-1194 57 -1605 40z"/>
<path d="M7940 7923 c-302 -7 -597 -28 -970 -69 -637 -69 -1318 -215 -1800
-386 -47 -16 -111 -39 -143 -50 -32 -11 -56 -22 -54 -25 3 -2 42 6 88 17 338
87 1063 189 1714 242 217 17 1229 18 1455 0 317 -25 897 -84 1150 -118 710
-94 1541 -302 2095 -524 559 -223 993 -467 1329 -747 426 -355 701 -741 861
-1208 21 -60 66 -168 101 -240 83 -170 104 -252 111 -433 3 -78 8 -141 10
-138 11 11 63 230 79 336 24 149 24 404 0 545 -102 611 -512 1174 -1171 1611
-223 148 -281 182 -575 337 -448 235 -1164 485 -1780 621 -788 174 -1623 251
-2500 229z"/>
<path d="M9246 7062 c-2 -4 -10 -38 -16 -75 -11 -60 -14 -66 -30 -57 -31 16
-75 11 -110 -12 -78 -54 -107 -201 -50 -258 27 -27 89 -27 124 1 26 20 27 20
24 3 -2 -15 3 -19 27 -19 l30 0 27 180 c15 99 30 195 33 213 6 30 4 32 -24 32
-16 0 -32 -4 -35 -8z m-42 -191 c10 -15 -13 -115 -33 -141 -24 -33 -66 -38
-81 -9 -17 32 -3 107 25 135 24 24 78 33 89 15z"/>
<path d="M5816 7006 c-9 -80 -13 -87 -41 -74 -56 25 -127 -17 -159 -94 -23
-55 -21 -139 5 -172 26 -33 84 -36 123 -5 l26 20 0 -20 c0 -17 6 -21 30 -21
17 0 30 4 30 8 0 11 48 335 56 380 6 31 5 32 -29 32 -34 0 -34 0 -41 -54z
m-33 -183 c-3 -65 -25 -111 -58 -119 -34 -8 -55 11 -55 52 0 72 37 127 84 122
31 -3 31 -4 29 -55z"/>
<path d="M7580 7041 c0 -11 -3 -26 -6 -35 -5 -13 2 -16 35 -16 40 0 41 1 41
35 0 33 -2 35 -35 35 -28 0 -35 -4 -35 -19z"/>
<path d="M7815 7033 c-37 -49 -38 -53 -13 -53 13 1 43 19 67 40 l44 40 -39 0
c-30 -1 -43 -7 -59 -27z"/>
<path d="M8920 7051 c0 -5 -12 -23 -26 -40 l-26 -31 27 0 c17 0 38 13 64 40
l38 40 -39 0 c-21 0 -38 -4 -38 -9z"/>
<path d="M9360 7025 c0 -33 2 -35 35 -35 33 0 35 2 35 35 0 33 -2 35 -35 35
-33 0 -35 -2 -35 -35z"/>
<path d="M4069 7022 c-61 -40 -92 -102 -97 -198 -4 -78 17 -138 60 -168 26
-19 119 -21 165 -5 27 9 30 13 23 37 -4 16 -13 25 -21 23 -98 -26 -148 2 -156
86 -4 40 0 63 19 105 31 66 76 93 138 83 33 -6 40 -3 50 15 17 32 0 43 -73 48
-55 3 -67 0 -108 -26z"/>
<path d="M6400 6998 c-12 -28 -55 -119 -96 -201 -41 -82 -74 -151 -74 -153 0
-2 17 -4 38 -4 35 0 38 3 59 51 17 38 27 50 39 45 8 -3 37 -6 64 -6 l49 0 7
-45 c6 -43 8 -45 41 -45 33 0 34 1 29 33 -3 17 -15 97 -26 177 -31 215 -25
200 -70 200 -36 0 -39 -2 -60 -52z m64 -99 c11 -113 13 -109 -45 -109 -28 0
-49 4 -47 9 16 42 74 160 79 161 3 0 9 -28 13 -61z"/>
<path d="M8405 7038 c-7 -21 -75 -369 -75 -384 0 -21 58 -18 63 4 3 9 16 78
28 152 l23 135 20 -117 20 -118 31 0 c30 0 34 5 89 118 31 64 55 104 52 87 -3
-16 -10 -70 -16 -120 -6 -49 -13 -105 -16 -122 -5 -31 -3 -33 25 -33 16 0 32
4 35 9 7 10 36 307 36 363 0 39 0 39 -37 36 l-37 -3 -55 -127 c-31 -70 -59
-128 -62 -128 -3 0 -13 51 -23 113 -23 152 -21 147 -62 147 -19 0 -37 -6 -39
-12z"/>
<path d="M6674 7013 c-14 -3 -27 -18 -37 -44 -8 -21 -22 -39 -30 -39 -8 0 -17
-11 -19 -25 -4 -20 -1 -25 14 -25 20 0 20 6 -2 -123 -16 -94 7 -123 91 -115
29 3 34 7 37 32 3 25 1 28 -17 23 -41 -10 -52 12 -41 78 19 109 17 105 56 105
33 0 35 2 32 28 -2 21 -9 28 -31 30 -27 3 -28 5 -22 43 4 21 3 38 -2 38 -4 -1
-18 -4 -29 -6z"/>
<path d="M4879 6983 c-5 -16 -12 -34 -14 -40 -2 -7 -11 -13 -19 -13 -13 0 -26
-20 -26 -41 0 -5 7 -9 16 -9 15 0 16 -8 10 -57 -20 -160 -20 -149 5 -167 14
-9 43 -16 71 -16 47 0 48 1 48 30 0 26 -3 30 -29 30 -16 0 -31 5 -33 11 -2 7
1 46 7 88 l10 76 38 3 c31 3 37 7 37 26 0 18 -7 25 -31 30 -30 6 -31 8 -26 41
5 33 4 35 -24 35 -23 0 -32 -6 -40 -27z"/>
<path d="M4343 6920 c-87 -53 -108 -226 -33 -265 33 -17 106 -20 143 -6 20 8
24 15 19 36 -4 23 -8 26 -31 19 -64 -19 -111 -1 -111 42 0 22 4 23 83 26 l82
3 3 57 c3 51 0 61 -22 83 -31 31 -87 33 -133 5z m87 -44 c6 -8 10 -25 8 -38
-3 -20 -10 -23 -50 -26 -56 -4 -64 13 -23 53 27 28 47 31 65 11z"/>
<path d="M4680 6933 c-8 -3 -25 -15 -37 -26 l-23 -20 0 21 c0 18 -6 22 -29 22
l-28 0 -17 -107 c-32 -205 -33 -183 7 -183 l35 0 13 93 c11 78 17 96 40 120
58 58 84 25 64 -83 -8 -41 -17 -87 -19 -102 -5 -26 -3 -28 29 -28 39 0 38 -2
55 110 15 101 13 154 -8 173 -18 17 -53 21 -82 10z"/>
<path d="M5136 6915 c-33 -30 -36 -31 -29 -5 5 17 0 20 -26 20 -17 0 -33 -6
-35 -12 -2 -7 -12 -73 -23 -145 l-19 -133 37 0 36 0 13 92 c13 100 36 138 85
138 14 0 25 6 25 13 0 6 3 22 6 35 5 18 2 22 -18 22 -14 0 -37 -11 -52 -25z"/>
<path d="M5279 6917 c-46 -30 -71 -84 -72 -158 -2 -57 0 -63 31 -90 26 -24 41
-29 82 -29 40 0 55 5 83 30 52 45 74 152 45 215 -25 56 -110 72 -169 32z m98
-49 c27 -34 19 -113 -15 -151 -24 -27 -74 -19 -86 14 -12 34 0 91 25 123 22
28 60 34 76 14z"/>
<path d="M5984 6926 c-42 -18 -72 -64 -84 -124 -19 -101 23 -162 112 -162 62
0 88 13 88 45 0 14 -1 25 -3 25 -1 0 -18 -5 -37 -10 -42 -12 -86 2 -96 32 -9
30 4 37 86 40 l75 3 5 35 c16 102 -52 157 -146 116z m79 -51 c33 -33 -6 -72
-64 -63 -32 4 -34 24 -5 53 29 29 48 31 69 10z"/>
<path d="M6839 6917 c-47 -31 -79 -98 -79 -165 0 -46 4 -58 29 -83 25 -24 38
-29 80 -29 72 0 104 14 95 43 -3 12 -7 23 -8 24 -1 1 -19 -2 -40 -8 -47 -13
-86 8 -86 46 0 24 2 25 79 25 73 0 79 2 85 23 14 51 6 88 -23 118 -37 36 -84
38 -132 6z m89 -39 c7 -7 12 -22 12 -35 0 -21 -4 -23 -55 -23 -52 0 -55 1 -45
19 25 48 63 64 88 39z"/>
<path d="M7141 6914 c-30 -25 -31 -25 -31 -5 0 16 -6 21 -29 21 l-29 0 -16
-112 c-10 -62 -20 -128 -23 -145 -5 -32 -4 -33 30 -33 l35 0 12 83 c15 96 31
134 66 149 20 9 28 9 40 -4 14 -13 14 -24 0 -98 -23 -120 -22 -130 14 -130 33
0 31 -5 54 130 8 47 12 98 9 113 -11 58 -81 75 -132 31z"/>
<path d="M7394 6931 c-73 -32 -117 -167 -79 -241 19 -37 43 -50 92 -50 65 0
83 9 83 40 0 26 -1 27 -50 22 -47 -4 -50 -3 -60 24 -8 20 -8 41 1 77 14 58 44
82 93 74 30 -5 35 -3 41 20 3 14 4 28 1 31 -10 9 -101 12 -122 3z"/>
<path d="M7566 6929 c-3 -8 -12 -66 -21 -129 -9 -63 -19 -125 -22 -137 -5 -21
-1 -23 31 -23 20 0 36 2 36 4 0 3 9 67 20 142 11 75 19 138 18 140 -2 1 -15 5
-30 9 -19 5 -29 3 -32 -6z"/>
<path d="M7745 6930 c-75 -31 -120 -164 -80 -240 20 -39 43 -50 104 -50 42 0
55 5 84 33 41 38 61 101 54 167 -9 78 -86 122 -162 90z m83 -62 c31 -31 2
-149 -42 -170 -69 -31 -93 103 -31 165 19 20 56 22 73 5z"/>
<path d="M8056 6915 c-24 -22 -26 -23 -26 -5 0 15 -7 20 -30 20 -34 0 -33 4
-55 -151 -21 -145 -21 -141 17 -137 l32 3 13 83 c15 95 23 115 59 139 23 15
27 15 41 0 14 -14 14 -25 4 -94 -7 -43 -14 -90 -17 -105 -5 -26 -3 -28 29 -28
l34 0 16 100 c21 123 21 150 1 178 -22 31 -82 30 -118 -3z"/>
<path d="M8826 6921 c-79 -53 -102 -196 -41 -257 19 -19 34 -24 77 -24 77 0
98 8 98 36 0 31 -10 35 -54 23 -47 -13 -86 8 -86 46 0 24 2 25 79 25 89 0 91
2 91 74 0 84 -90 126 -164 77z m94 -45 c6 -8 10 -25 8 -38 -2 -19 -10 -24 -42
-26 -60 -5 -70 2 -52 37 22 42 63 54 86 27z"/>
<path d="M9514 6921 c-43 -26 -61 -55 -75 -118 -22 -99 18 -166 99 -166 63 0
82 11 82 44 0 29 -1 29 -40 23 -53 -9 -70 6 -70 63 0 81 41 125 104 109 20 -5
25 -1 30 20 9 34 6 36 -51 41 -36 3 -56 -1 -79 -16z"/>
<path d="M9728 6928 c-20 -7 -28 -17 -28 -32 0 -22 4 -23 58 -22 55 1 57 0 60
-26 3 -25 0 -28 -25 -28 -49 0 -102 -20 -123 -47 -26 -33 -27 -94 -2 -116 23
-21 81 -22 110 -1 20 14 22 14 22 0 0 -20 60 -23 60 -3 1 6 7 48 15 92 21 115
19 142 -10 170 -26 27 -85 33 -137 13z m77 -180 c-8 -29 -44 -60 -63 -56 -8 2
-20 11 -26 20 -16 26 18 58 61 58 31 0 34 -2 28 -22z"/>
<path d="M9346 6913 c-2 -10 -12 -67 -21 -128 -9 -60 -18 -118 -21 -127 -4
-15 1 -18 30 -18 39 0 36 -9 61 152 21 136 21 138 -14 138 -20 0 -31 -6 -35
-17z"/>
<path d="M8383 6448 c-28 -51 -54 -93 -59 -95 -5 -2 -20 18 -34 43 -13 26 -41
58 -62 71 -32 21 -46 25 -91 21 -60 -5 -131 -35 -135 -58 -1 -9 29 -36 79 -70
82 -55 119 -91 119 -116 0 -7 -39 -53 -87 -102 -93 -94 -165 -206 -200 -312
-26 -79 -25 -230 1 -259 23 -26 36 -27 36 -3 0 10 4 22 10 28 5 5 15 48 21 94
15 113 41 183 91 247 53 70 188 178 246 198 143 48 282 -22 349 -175 26 -61
44 -78 62 -56 13 16 -1 101 -23 144 -8 15 -44 60 -80 99 -36 39 -66 75 -66 79
0 5 18 36 40 69 45 67 49 94 21 119 -34 31 -54 16 -96 -71 -50 -103 -57 -110
-90 -95 -14 6 -25 19 -25 27 0 23 36 91 85 160 23 33 48 70 54 83 12 22 11 22
-52 22 l-63 0 -51 -92z"/>
<path d="M3585 6411 c-342 -119 -647 -294 -894 -514 -285 -254 -450 -538 -490
-838 -33 -249 71 -559 307 -918 90 -138 151 -212 291 -354 296 -302 872 -632
1466 -840 128 -45 473 -142 480 -135 2 2 -26 14 -63 27 -157 55 -440 179 -607
265 -421 217 -719 430 -986 702 -381 390 -562 762 -562 1154 0 317 101 578
334 865 126 156 339 337 530 453 75 45 279 151 319 165 13 5 13 5 0 6 -8 0
-64 -17 -125 -38z"/>
<path d="M5346 6309 c-9 -48 -9 -49 33 -49 35 0 39 3 45 31 9 48 9 49 -33 49
-35 0 -39 -3 -45 -31z"/>
<path d="M5767 6313 c-3 -16 -15 -103 -28 -195 -22 -162 -22 -168 -4 -188 18
-20 58 -26 89 -14 23 9 20 51 -4 57 -24 6 -25 27 -5 151 8 50 18 119 23 154
l9 62 -37 0 c-33 0 -38 -3 -43 -27z"/>
<path d="M5930 6323 c0 -10 -3 -28 -6 -40 -6 -21 -3 -23 34 -23 36 0 40 3 46
31 8 41 2 49 -40 49 -26 0 -34 -4 -34 -17z"/>
<path d="M6766 6332 c-2 -4 -8 -36 -12 -70 -6 -53 -9 -62 -23 -56 -98 43 -191
-46 -191 -184 0 -54 4 -66 26 -89 21 -21 32 -25 66 -20 22 3 48 13 59 23 18
16 19 16 19 -4 0 -18 6 -22 30 -22 17 0 33 6 35 13 2 6 16 93 30 192 14 99 29
190 32 203 5 20 1 22 -30 22 -20 0 -38 -4 -41 -8z m-34 -187 c3 -3 0 -34 -8
-68 -9 -44 -20 -68 -39 -84 -33 -29 -41 -29 -62 3 -14 23 -15 32 -4 72 7 26
19 55 28 64 15 17 73 25 85 13z"/>
<path d="M3990 6318 c0 -7 -14 -98 -30 -201 -17 -104 -28 -193 -24 -198 3 -5
56 -9 118 -9 l114 0 4 35 4 35 -79 0 -80 0 7 46 c3 25 8 50 12 55 3 5 34 9 69
9 60 0 65 2 71 24 9 39 -2 46 -72 46 -57 0 -65 2 -60 18 2 9 7 32 11 50 l7 32
79 0 79 0 0 35 0 35 -115 0 c-85 0 -115 -3 -115 -12z"/>
<path d="M4303 6205 c-39 -17 -55 -45 -51 -93 2 -29 10 -41 38 -59 76 -48 76
-49 60 -68 -12 -14 -24 -16 -66 -11 -47 5 -52 4 -62 -19 -11 -23 -9 -27 16
-36 15 -6 54 -9 86 -7 72 5 106 36 106 97 0 41 -16 61 -71 89 -42 22 -47 39
-16 53 18 8 34 9 55 1 27 -9 31 -8 41 14 15 33 16 32 -26 43 -49 14 -71 13
-110 -4z"/>
<path d="M4612 6200 c-39 -24 -46 -25 -38 -5 4 11 -2 15 -27 15 l-33 0 -28
-182 c-15 -101 -30 -193 -33 -205 -5 -21 -2 -23 35 -23 40 0 40 0 47 46 10 71
12 73 54 67 54 -7 102 18 132 70 19 34 24 56 24 115 0 68 -2 75 -28 98 -34 29
-62 30 -105 4z m46 -62 c25 -25 9 -104 -30 -145 -20 -21 -57 -30 -70 -18 -3 3
0 36 7 72 16 85 58 126 93 91z"/>
<path d="M4864 6200 c-67 -34 -106 -132 -83 -213 18 -66 89 -92 182 -66 34 9
37 12 31 37 -9 35 -7 34 -38 22 -40 -15 -71 -12 -89 8 -39 43 -3 62 113 62 35
0 38 2 44 36 11 54 -10 103 -50 120 -45 19 -61 18 -110 -6z m89 -61 c19 -31 1
-49 -48 -49 -51 0 -56 10 -20 46 28 27 52 28 68 3z"/>
<path d="M5143 6200 c-67 -34 -106 -136 -83 -218 15 -56 53 -77 128 -69 30 3
56 8 59 11 3 3 2 17 -1 31 -6 23 -10 25 -39 20 -49 -9 -72 13 -71 70 1 67 29
100 84 101 35 0 46 5 54 23 12 29 -1 41 -50 47 -27 4 -52 -1 -81 -16z"/>
<path d="M5515 6207 c-22 -7 -40 -18 -39 -25 1 -7 2 -18 3 -25 1 -8 19 -12 59
-12 55 0 57 -1 60 -27 3 -27 1 -28 -38 -28 -52 0 -105 -22 -120 -50 -7 -12
-12 -39 -12 -58 0 -63 61 -91 126 -57 35 18 36 18 36 2 0 -9 9 -12 29 -9 28 4
30 8 41 71 25 140 25 165 -1 195 -29 33 -84 42 -144 23z m75 -180 c0 -31 -32
-59 -62 -55 -33 4 -32 48 2 65 39 20 60 16 60 -10z"/>
<path d="M6338 6208 c-32 -8 -38 -14 -38 -37 0 -28 1 -28 63 -27 60 1 62 0 62
-24 0 -23 -5 -26 -51 -31 -83 -10 -124 -44 -124 -104 0 -36 8 -48 37 -64 29
-15 58 -14 93 4 25 13 29 13 34 -1 4 -10 16 -14 33 -12 26 3 28 7 35 63 4 33
11 82 16 109 13 66 -1 104 -44 122 -38 16 -63 16 -116 2z m78 -185 c-14 -56
-78 -72 -84 -22 -3 22 2 29 25 37 52 19 66 15 59 -15z"/>
<path d="M6932 6210 c-43 -10 -53 -20 -46 -45 4 -18 13 -20 62 -20 55 0 57 -1
60 -27 3 -27 1 -28 -38 -28 -46 0 -98 -19 -118 -43 -7 -8 -16 -31 -19 -50 -4
-29 -1 -40 20 -61 30 -30 68 -33 111 -11 17 9 32 12 35 6 3 -5 17 -11 31 -12
23 -4 25 -1 42 101 19 113 17 149 -10 173 -22 20 -86 28 -130 17z m68 -180 c0
-28 -37 -62 -63 -58 -32 4 -30 48 3 65 37 19 60 16 60 -7z"/>
<path d="M5316 6096 c-9 -62 -19 -130 -23 -150 l-6 -37 39 3 39 3 16 100 c9
55 19 121 23 148 l7 47 -39 0 -39 0 -17 -114z"/>
<path d="M5917 6203 c-5 -8 -33 -195 -39 -258 -3 -28 -1 -30 32 -30 l35 0 22
130 c29 174 30 165 -11 165 -19 0 -37 -3 -39 -7z"/>
<path d="M6040 6180 c0 -30 1 -30 55 -30 l55 0 -75 -97 c-44 -57 -75 -106 -75
-120 0 -23 2 -23 105 -23 104 0 105 0 111 25 8 34 3 38 -56 39 -27 1 -50 3
-50 6 0 3 23 34 51 70 121 157 121 160 -16 160 l-105 0 0 -30z"/>
<path d="M7849 6096 c-112 -94 -118 -103 -134 -201 -8 -48 -17 -144 -20 -214
-6 -110 -4 -130 12 -161 10 -20 27 -36 39 -38 28 -4 32 23 44 275 5 103 9 189
10 190 0 1 45 26 100 55 86 46 100 56 100 78 0 14 -7 36 -16 48 -26 37 -62 28
-135 -32z"/>
<path d="M8448 5963 c-39 -46 -119 -185 -114 -198 8 -21 52 -19 128 5 98 31
122 27 168 -22 l39 -42 72 12 c51 9 76 9 83 2 6 -6 31 -49 56 -97 36 -69 52
-90 82 -105 31 -16 43 -17 77 -8 44 12 59 37 41 70 -6 11 -19 20 -28 20 -34 0
-64 33 -104 116 -22 45 -46 85 -54 88 -8 3 -49 0 -91 -6 -69 -10 -82 -9 -115
6 -20 10 -49 35 -63 57 -41 58 -111 119 -138 119 -13 0 -31 -8 -39 -17z"/>
<path d="M3455 5724 c-348 -61 -555 -411 -515 -869 12 -136 13 -144 47 -247
82 -257 298 -390 608 -375 201 10 325 71 410 203 46 70 67 148 66 251 0 47 -2
88 -6 91 -5 5 -128 40 -146 41 -4 1 -5 -36 -2 -81 9 -144 -35 -272 -116 -338
-69 -58 -186 -74 -261 -35 -64 33 -122 118 -153 222 -38 127 -46 479 -17 678
25 168 81 289 155 335 43 27 138 29 189 5 97 -46 136 -131 138 -300 0 -63 4
-95 12 -95 6 0 45 17 86 38 l75 37 -3 65 c-6 168 -91 298 -228 349 -109 41
-207 48 -339 25z"/>
<path d="M10278 5730 c-105 -20 -158 -125 -110 -220 23 -45 69 -71 141 -77 73
-7 139 21 171 71 24 40 27 114 5 156 -27 53 -125 86 -207 70z"/>
<path d="M7152 5713 c-52 -25 -77 -69 -77 -133 0 -66 21 -100 81 -130 79 -39
197 -16 243 48 50 71 31 163 -43 207 -52 30 -151 34 -204 8z"/>
<path d="M8442 5719 c-65 -13 -104 -72 -152 -229 -33 -106 -64 -180 -78 -180
-15 0 -183 -158 -239 -225 -111 -134 -152 -224 -160 -357 -5 -75 -2 -98 20
-170 56 -180 195 -323 423 -436 165 -83 347 -132 539 -147 89 -6 251 8 311 27
38 13 39 15 42 62 l3 48 -38 -6 c-91 -14 -284 -18 -363 -7 -95 14 -245 56
-340 95 -189 77 -354 216 -422 354 -30 61 -33 74 -33 162 0 91 2 98 39 168 51
96 152 203 251 267 90 59 92 63 139 248 13 52 31 107 39 123 46 89 118 103
212 41 57 -39 83 -45 103 -25 70 70 -159 215 -296 187z"/>
<path d="M6800 5690 c-36 -4 -107 -8 -157 -9 l-93 -1 0 -242 0 -242 -35 41
c-52 61 -120 86 -215 81 -206 -13 -302 -159 -317 -483 -13 -294 47 -487 175
-563 37 -21 61 -27 131 -30 109 -5 157 8 215 59 l46 41 0 -41 0 -41 175 0 175
0 0 720 c0 680 -1 720 -17 718 -10 0 -47 -4 -83 -8z m-301 -546 c41 -52 46
-95 46 -389 0 -260 -1 -283 -20 -320 -56 -112 -165 -65 -180 79 -8 75 0 549
10 588 12 44 41 68 85 68 30 0 43 -6 59 -26z"/>
<path d="M11490 5694 c-8 -3 -78 -8 -155 -12 l-140 -7 -3 -237 -2 -238 -38 42
c-117 130 -352 95 -447 -66 -61 -104 -92 -280 -82 -466 11 -212 50 -325 139
-405 60 -54 113 -69 220 -63 90 5 125 18 177 67 18 17 35 31 37 31 2 0 4 -18
4 -40 l0 -40 170 0 170 0 0 720 c0 679 -1 720 -17 719 -10 -1 -25 -3 -33 -5z
m-347 -554 c41 -49 51 -121 51 -390 1 -258 -6 -312 -44 -350 -47 -47 -112 -31
-145 35 -19 37 -20 60 -20 315 0 298 5 355 36 394 30 38 88 36 122 -4z"/>
<path d="M8790 5538 c0 -13 5 -86 10 -163 6 -77 15 -209 20 -293 8 -146 10
-155 39 -200 85 -133 131 -284 131 -431 0 -44 3 -87 7 -96 7 -19 177 -135 197
-135 17 0 36 21 36 41 0 9 -21 31 -48 48 -93 59 -104 78 -113 188 -10 130 -36
222 -103 376 -51 116 -58 139 -66 230 -13 140 -17 247 -9 247 15 0 294 -611
323 -711 9 -29 16 -83 16 -121 0 -57 5 -77 30 -121 49 -87 37 -163 -41 -271
-35 -49 -35 -81 -2 -103 21 -14 24 -13 40 17 33 60 75 120 83 120 13 0 18 -22
40 -185 28 -202 41 -246 86 -283 22 -19 53 -33 81 -37 l45 -6 -7 -42 c-4 -23
-19 -101 -35 -174 -24 -117 -26 -134 -13 -153 8 -11 24 -20 36 -20 35 0 96 48
96 75 1 6 -8 -1 -19 -15 -40 -53 -41 -11 -3 167 l36 170 60 7 c33 3 148 6 255
6 175 0 200 2 237 20 47 23 75 70 95 162 7 32 17 55 22 52 4 -3 8 -39 8 -80 0
-70 -1 -74 -23 -74 -20 0 -22 -4 -19 -39 2 -21 -1 -64 -8 -96 -11 -54 -12 -56
-30 -40 -44 40 -141 -19 -180 -109 -30 -67 -30 -156 0 -186 32 -32 68 -25 112
20 l38 41 0 -29 c0 -38 22 -56 57 -47 29 7 83 52 83 69 0 5 -11 -1 -25 -14
-14 -13 -28 -21 -31 -17 -3 3 9 78 28 167 29 144 36 163 56 171 43 17 49 85
26 283 -11 88 -84 133 -141 88 -21 -16 -53 -110 -53 -157 0 -33 -38 -85 -73
-99 -37 -16 -464 -28 -473 -14 -3 4 -27 8 -55 8 -36 0 -49 -4 -49 -15 0 -11
-8 -13 -32 -9 -58 11 -72 37 -102 200 -16 82 -35 181 -43 219 -9 39 -19 104
-22 146 -5 54 -14 87 -32 115 -18 30 -25 59 -30 124 -8 113 -60 242 -251 625
-105 209 -162 299 -231 361 -56 50 -67 54 -67 22z m1496 -1993 c6 -24 -20
-134 -41 -175 -21 -41 -53 -66 -67 -52 -40 40 40 274 87 255 9 -3 18 -15 21
-28z"/>
<path d="M7823 5470 c-99 -50 -188 -186 -235 -358 -18 -63 -21 -106 -22 -232
0 -138 3 -166 27 -255 44 -158 104 -271 191 -359 101 -101 256 -177 280 -137
13 20 -33 83 -95 130 -165 125 -261 323 -276 567 -5 79 -2 117 12 175 47 191
159 367 227 357 17 -2 28 -17 44 -55 22 -57 52 -96 65 -87 20 12 9 110 -17
163 -46 91 -127 128 -201 91z"/>
<path d="M4414 5306 c-99 -23 -177 -74 -211 -140 -18 -34 -24 -160 -8 -175 6
-5 45 -16 88 -24 71 -13 77 -13 72 2 -14 37 -18 151 -5 181 35 84 187 113 269
52 37 -28 55 -81 46 -139 -11 -77 -69 -125 -229 -192 -153 -64 -239 -125 -273
-191 -49 -95 -47 -228 4 -321 46 -86 119 -120 255 -121 100 0 167 24 231 84
20 19 37 32 37 27 0 -5 14 -24 31 -44 43 -49 117 -70 220 -62 96 8 212 44 204
64 -3 8 -8 26 -11 40 -6 22 -10 24 -39 19 -23 -5 -38 -1 -54 11 -21 18 -21 24
-24 388 -3 415 -3 414 -75 476 -66 56 -133 73 -312 76 -105 2 -175 -2 -216
-11z m246 -813 c-7 -29 -23 -67 -37 -84 -22 -26 -31 -30 -66 -27 -63 5 -81 37
-86 156 -5 151 15 196 127 286 l67 53 3 -166 c1 -93 -2 -188 -8 -218z"/>
<path d="M5714 5313 c-33 -6 -101 -69 -132 -121 l-27 -47 -3 84 -3 84 -57 -7
c-31 -4 -110 -9 -174 -13 l-118 -6 0 -513 0 -514 174 0 174 0 5 358 c3 302 7
366 21 417 31 105 76 143 110 93 20 -28 20 -71 1 -134 -23 -77 -28 -74 98 -74
l114 0 12 38 c7 20 15 80 18 133 5 83 3 102 -15 143 -31 68 -104 98 -198 79z"/>
<path d="M7305 5304 c-55 -7 -130 -13 -168 -13 l-67 -1 2 -517 3 -518 170 0
170 0 3 524 c1 289 -1 528 -5 531 -5 3 -53 0 -108 -6z"/>
<path d="M10440 5308 c-25 -3 -102 -10 -173 -14 l-127 -7 2 -516 3 -516 169 2
c93 2 171 4 173 6 2 2 2 240 1 528 l-3 524 -45 -7z"/>
<path d="M11990 5314 c-135 -23 -228 -75 -261 -147 -19 -42 -26 -151 -11 -173
4 -6 42 -18 85 -26 l78 -15 -8 41 c-23 116 -4 179 67 220 42 25 133 26 178 3
92 -49 97 -193 9 -260 -41 -31 -124 -73 -205 -103 -121 -46 -216 -123 -249
-203 -24 -57 -28 -168 -8 -236 13 -47 27 -70 65 -107 59 -57 105 -72 220 -73
73 0 93 4 142 28 31 15 70 43 86 62 l30 33 23 -36 c40 -60 87 -77 209 -77 84
0 119 5 173 24 55 19 67 26 61 40 -3 9 -9 26 -11 38 -5 20 -10 22 -43 17 -30
-5 -42 -2 -59 15 -24 24 -24 20 -26 486 -1 299 -3 312 -67 373 -61 57 -132 76
-303 78 -82 1 -161 0 -175 -2z m198 -674 c-4 -197 -13 -228 -73 -257 -27 -13
-40 -14 -59 -5 -45 20 -59 55 -64 161 -7 144 13 183 158 309 l35 31 3 -32 c2
-18 2 -111 0 -207z"/>
<path d="M9220 5286 c0 -3 13 -42 29 -88 16 -46 55 -164 86 -263 31 -99 93
-291 136 -426 l79 -246 51 -7 c28 -4 82 -4 119 0 l68 6 32 107 c18 58 86 282
152 496 65 215 121 398 124 408 5 15 -2 17 -53 17 l-58 0 -84 -298 c-47 -163
-92 -319 -101 -346 l-16 -49 -23 74 c-12 41 -44 153 -72 249 -27 96 -54 186
-59 200 -5 14 -18 58 -30 98 l-21 72 -179 0 c-99 0 -180 -2 -180 -4z"/>
<path d="M13230 4414 l0 -154 25 0 c24 0 25 2 25 65 0 57 2 65 19 65 27 0 39
-19 48 -75 8 -45 11 -50 37 -53 28 -3 28 -3 21 40 -8 54 -25 98 -37 98 -5 0 2
14 16 31 14 17 26 42 26 55 0 36 -42 74 -85 76 -19 1 -48 2 -65 3 l-30 2 0
-153z m112 92 c22 -33 0 -76 -39 -76 -20 0 -23 5 -23 43 0 24 3 47 7 50 9 9
46 -2 55 -17z"/>
<path d="M12760 4410 l0 -150 80 0 c73 0 80 2 80 20 0 17 -7 20 -50 20 l-50 0
0 50 0 50 45 0 c38 0 45 3 45 20 0 17 -7 20 -45 20 l-45 0 0 40 0 40 44 0 c35
0 45 4 49 20 5 19 0 20 -74 20 l-79 0 0 -150z"/>
<path d="M13038 4410 l3 -150 25 0 24 0 0 150 0 150 -27 0 -28 0 3 -150z"/>
<path d="M13530 4410 l0 -150 80 0 c73 0 80 2 80 20 0 17 -7 20 -49 20 l-48 0
-6 83 c-4 45 -7 103 -7 130 0 43 -2 47 -25 47 l-25 0 0 -150z"/>
<path d="M12945 4309 c-9 -26 16 -55 40 -45 25 9 16 60 -12 64 -15 2 -23 -3
-28 -19z"/>
<path d="M13137 4324 c-12 -12 -8 -41 8 -54 20 -17 47 5 43 34 -3 21 -37 34
-51 20z"/>
<path d="M13442 4318 c-16 -16 -15 -33 2 -47 22 -18 48 -2 44 28 -3 28 -27 38
-46 19z"/>
<path d="M13713 4294 c-3 -8 -1 -20 5 -26 16 -16 42 -2 42 22 0 24 -38 28 -47
4z"/>
<path d="M13793 4268 c-6 -13 -38 -60 -71 -105 -422 -568 -1393 -1036 -2869
-1383 -288 -68 -838 -176 -1118 -219 -882 -137 -1638 -187 -2444 -162 -218 7
-436 16 -486 21 -49 5 -211 20 -360 34 -610 58 -948 107 -1415 207 -651 140
-1295 369 -1774 633 -126 69 -100 43 51 -51 461 -289 930 -499 1539 -688 1294
-402 2721 -548 4299 -440 842 58 1756 229 2440 457 768 256 1324 568 1726 968
163 162 263 286 354 440 52 89 150 299 142 306 -2 2 -8 -6 -14 -18z"/>
<path d="M12326 4165 c-18 -18 -19 -25 -8 -41 25 -37 85 -19 80 24 -2 21 -9
28 -29 30 -15 2 -34 -4 -43 -13z"/>
<path d="M12094 4153 c-12 -2 -34 -17 -49 -34 -23 -23 -30 -40 -33 -88 -6 -79
20 -132 100 -206 l60 -56 -60 -57 c-33 -31 -86 -73 -118 -92 -50 -30 -67 -35
-122 -35 -59 0 -66 2 -92 32 -39 43 -49 86 -59 254 -9 170 -28 222 -84 237
-41 11 -83 -3 -103 -34 -9 -13 -22 -68 -30 -123 -7 -54 -18 -109 -23 -123 -20
-52 -24 -53 -325 -58 -296 -6 -299 -6 -359 -56 -32 -27 -69 -31 -86 -10 -9 10
-30 141 -31 187 0 15 -44 49 -64 49 -38 0 -51 -24 -38 -68 6 -20 16 -74 21
-120 13 -100 35 -137 91 -152 48 -13 95 1 165 51 l50 34 295 5 c220 4 301 8
318 18 34 19 59 83 73 184 13 97 29 108 29 20 0 -86 19 -231 36 -285 33 -99
109 -144 229 -134 92 7 153 41 317 178 l68 56 92 6 c129 8 181 28 250 97 69
69 96 142 79 208 -14 50 -35 68 -96 82 -28 6 -63 16 -79 21 -20 6 -34 5 -43
-2 -36 -30 8 -69 78 -69 97 0 108 -85 24 -179 -81 -89 -259 -115 -378 -54 -40
20 -106 81 -123 114 -23 46 -18 111 11 139 21 20 30 22 67 15 75 -12 100 -11
112 7 7 11 7 21 1 27 -11 10 -139 21 -171 14z"/>
<path d="M4496 3750 c12 -5 25 -14 29 -20 7 -11 -45 -304 -68 -385 -9 -30 -21
-44 -47 -57 -35 -18 -32 -18 157 -18 l192 0 12 43 c6 23 15 53 20 66 6 13 7
26 3 30 -4 3 -9 0 -12 -7 -9 -26 -62 -80 -90 -91 -16 -7 -51 -11 -78 -9 -44 3
-49 6 -53 28 -1 14 5 63 14 109 l18 83 35 -6 c43 -7 52 -15 61 -58 7 -31 9
-27 25 47 10 44 20 89 23 100 3 12 -4 6 -16 -13 -22 -34 -55 -52 -97 -52 -24
0 -25 2 -18 46 3 25 12 67 18 92 l12 47 55 3 c65 3 109 -23 109 -64 0 -40 17
-27 23 19 3 24 9 51 13 60 6 16 -8 17 -177 16 -114 0 -176 -4 -163 -9z"/>
<path d="M6290 3634 c-25 -25 -58 -53 -75 -62 -28 -16 -29 -17 -7 -20 27 -4
27 0 -3 -133 -28 -119 -25 -144 19 -155 29 -7 63 9 93 45 31 37 29 52 -3 18
-42 -46 -48 -22 -24 94 13 57 24 110 26 117 2 6 15 12 29 12 16 0 25 6 25 15
0 9 -9 15 -21 15 -20 0 -21 4 -15 50 4 28 5 50 3 50 -1 0 -23 -21 -47 -46z"/>
<path d="M8326 3615 c-40 -38 -62 -65 -52 -65 21 0 20 -4 -6 -133 -24 -111
-22 -128 15 -151 22 -14 83 18 106 54 l15 25 -27 -25 c-38 -34 -48 -14 -32 59
7 31 18 82 25 114 10 51 14 57 36 57 15 0 24 6 24 15 0 8 -9 15 -20 15 -17 0
-18 5 -13 50 3 28 4 50 2 50 -2 -1 -35 -30 -73 -65z"/>
<path d="M4922 3575 c-55 -13 -78 -25 -50 -25 25 0 26 -20 7 -110 -10 -47 -22
-104 -25 -127 l-7 -43 41 0 41 0 17 78 c19 89 41 137 78 171 43 40 50 17 27
-85 -20 -87 -24 -117 -22 -141 2 -18 39 -35 61 -28 26 8 80 54 80 68 0 6 -11
0 -25 -13 -14 -13 -28 -21 -31 -17 -3 3 6 58 20 122 25 108 25 119 11 141 -26
41 -70 33 -123 -23 -49 -50 -48 -50 -30 26 4 19 -10 20 -70 6z"/>
<path d="M5325 3574 c-96 -49 -149 -169 -115 -258 13 -34 64 -60 107 -53 33 6
122 63 123 79 0 4 -15 -1 -32 -12 -69 -42 -123 -14 -120 63 3 77 40 154 84
178 28 15 44 -2 27 -28 -18 -30 -5 -55 28 -51 38 4 54 49 28 78 -22 25 -86 27
-130 4z"/>
<path d="M5595 3567 c-52 -29 -96 -102 -103 -167 -6 -65 11 -104 55 -125 104
-50 233 60 233 198 0 51 -4 62 -29 88 -37 37 -97 39 -156 6z m99 -72 c-2 -73
-32 -171 -61 -201 -9 -8 -25 -14 -37 -12 -18 3 -21 10 -21 53 1 64 31 178 57
211 13 16 28 24 42 22 19 -3 21 -9 20 -73z"/>
<path d="M5895 3578 c-61 -13 -63 -15 -40 -32 20 -14 19 -21 -31 -254 -4 -22
-2 -23 38 -20 l43 3 16 75 c17 82 34 121 74 163 51 53 56 33 25 -98 -22 -96
-24 -114 -11 -134 22 -34 131 5 131 47 0 13 -3 12 -16 -6 -18 -26 -34 -29 -34
-5 0 10 10 61 22 113 12 56 18 107 14 123 -14 58 -97 42 -145 -28 -29 -42 -34
-41 -21 6 19 64 20 64 -65 47z"/>
<path d="M6453 3577 c-48 -9 -74 -27 -39 -27 8 0 17 -4 20 -8 3 -5 -6 -64 -20
-133 -13 -68 -24 -127 -24 -131 0 -5 18 -8 40 -8 35 0 40 3 45 28 14 64 55
189 69 207 14 19 15 19 34 1 40 -36 83 4 63 58 -20 52 -80 24 -116 -54 l-16
-35 6 40 c3 22 8 48 11 58 6 19 4 19 -73 4z"/>
<path d="M6763 3570 c-87 -53 -142 -221 -92 -284 30 -38 63 -34 110 13 l39 39
0 -29 c0 -32 29 -54 60 -44 26 8 80 54 80 68 0 6 -11 0 -24 -12 -13 -12 -26
-19 -29 -14 -3 5 7 68 22 141 l27 132 -43 0 c-24 0 -43 -5 -43 -11 0 -6 -7 -3
-16 5 -21 21 -52 20 -91 -4z m92 -32 c8 -43 -28 -158 -61 -198 -22 -25 -29
-28 -41 -18 -41 34 31 248 83 248 7 0 16 -15 19 -32z"/>
<path d="M7072 3576 c-55 -14 -78 -26 -48 -26 27 0 28 -19 1 -149 -14 -68 -25
-126 -25 -128 0 -2 19 -3 43 -1 l42 3 16 78 c22 101 35 132 72 163 46 38 52
20 29 -83 -11 -48 -23 -105 -27 -126 l-6 -38 43 3 43 3 16 75 c18 88 41 139
75 171 42 40 49 14 25 -91 -28 -122 -27 -148 3 -162 20 -8 31 -7 57 8 17 11
39 30 47 44 l16 25 -27 -24 c-15 -14 -30 -22 -33 -18 -3 3 6 58 21 122 25 108
26 117 11 140 -28 42 -78 30 -132 -32 l-31 -35 -1 32 c-2 76 -75 80 -137 7
-36 -42 -36 -42 -30 -12 4 17 9 38 12 48 5 20 -2 20 -75 3z"/>
<path d="M7650 3579 c-67 -27 -122 -114 -124 -195 -1 -65 25 -105 77 -118 104
-27 216 81 217 208 0 41 -5 53 -34 82 -27 27 -42 34 -72 33 -22 0 -50 -5 -64
-10z m86 -34 c12 -48 -30 -210 -63 -247 -9 -10 -27 -18 -41 -18 -25 0 -25 0
-19 73 6 71 36 177 58 203 20 24 58 17 65 -11z"/>
<path d="M7918 3574 c-32 -17 -49 -65 -37 -107 4 -15 26 -49 49 -74 32 -37 40
-54 38 -77 -3 -26 -8 -31 -34 -34 -34 -3 -56 16 -71 63 -10 30 -10 30 -17 -18
-4 -27 -5 -51 -3 -54 3 -3 35 -6 70 -6 56 -2 69 1 91 22 49 46 44 122 -11 173
-32 30 -54 73 -47 92 15 39 78 18 90 -30 8 -31 24 -13 24 27 0 22 -6 28 -31
33 -48 9 -81 7 -111 -10z"/>
<path d="M8530 3577 c-65 -11 -69 -13 -47 -30 16 -11 16 -19 -4 -119 -23 -115
-21 -153 12 -163 34 -11 66 3 107 45 l38 40 -4 -34 c-3 -27 0 -37 18 -46 12
-6 33 -9 47 -5 26 6 73 51 73 69 0 6 -9 0 -20 -14 -36 -47 -39 -11 -10 128
l27 132 -43 0 c-24 0 -44 -2 -44 -5 0 -25 -35 -166 -47 -190 -20 -39 -53 -75
-70 -75 -18 0 -16 30 8 149 11 56 19 107 17 114 -2 9 -16 10 -58 4z"/>
<path d="M8998 3571 c-32 -26 -45 -79 -28 -112 7 -13 28 -42 46 -65 58 -71 52
-120 -13 -112 -26 3 -39 18 -59 73 -6 15 -9 7 -13 -30 l-6 -50 52 -8 c67 -10
115 9 138 54 23 43 9 87 -45 153 -42 50 -51 83 -25 92 32 12 63 -5 77 -43 l13
-36 6 44 c4 24 6 45 5 46 -1 1 -28 4 -61 8 -52 6 -64 4 -87 -14z"/>
<path d="M9305 3579 c-36 -21 -76 -63 -96 -102 -78 -151 0 -286 100 -172 17
19 32 35 33 35 2 0 3 -14 3 -31 0 -38 22 -54 60 -45 29 7 91 63 81 73 -3 3
-14 -5 -24 -17 -35 -44 -40 -15 -16 98 13 60 26 121 30 136 6 25 5 26 -39 26
-49 0 -57 -9 -57 -65 0 -58 -38 -162 -67 -185 -26 -20 -28 -21 -41 -3 -19 26
-7 96 31 173 26 52 36 65 55 64 12 0 21 4 19 10 -5 15 -48 18 -72 5z"/>
<path d="M9793 3577 c-29 -5 -53 -14 -53 -18 0 -5 4 -9 9 -9 18 0 18 -29 0
-106 -26 -107 -25 -160 2 -174 33 -18 76 -2 114 43 l35 41 0 -36 c0 -44 20
-63 57 -53 30 7 73 42 73 58 0 6 -9 2 -20 -8 -11 -10 -23 -15 -27 -12 -5 5 9
84 45 255 4 22 2 23 -39 20 l-43 -3 -11 -60 c-20 -102 -33 -139 -64 -172 -30
-33 -46 -40 -54 -25 -3 4 6 61 19 127 26 132 27 146 17 144 -5 -1 -32 -6 -60
-12z"/>
<path d="M10440 3335 c-17 -20 -5 -62 20 -70 31 -10 59 4 66 31 8 31 -11 54
-46 54 -15 0 -33 -7 -40 -15z"/>
<path d="M10632 3338 c-29 -29 -7 -78 35 -78 32 0 58 42 43 69 -12 24 -58 29
-78 9z"/>
<path d="M10810 3330 c-6 -12 -8 -30 -5 -40 7 -24 52 -37 74 -23 20 13 26 50
11 69 -19 21 -67 18 -80 -6z"/>
</g>
</svg>
